<?xml version="1.0" encoding="utf-8"?>
<!-- Generator: Adobe Illustrator 21.0.2, SVG Export Plug-In . SVG Version: 6.00 Build 0)  -->
<svg version="1.1" xmlns="http://www.w3.org/2000/svg" xmlns:xlink="http://www.w3.org/1999/xlink" x="0px" y="0px"
	 viewBox="0 0 60 60" style="enable-background:new 0 0 60 60;" xml:space="preserve">
<style type="text/css">
	.st0{display:none;}
	.st1{display:inline;}
	.st2{fill:#808789;}
	.st3{display:inline;fill:#77C5E2;}
	.st4{fill:#C82982;stroke:#C82982;stroke-miterlimit:10;}
	.st5{fill:#DC92B8;stroke:#DC92B8;stroke-miterlimit:10;}
	.st6{display:inline;fill:#F2F0F0;}
	.st7{display:inline;fill:#808789;}
	.st8{display:inline;fill:#329DC1;}
	.st9{fill:#DC92B8;}
	.st10{display:inline;fill:#F4BE06;}
	.st11{display:inline;fill:#C82982;}
	.st12{display:inline;fill:#DC92B8;}
	.st13{display:inline;fill:#666666;}
	.st14{fill:#D5D5D4;}
	.st15{fill:#329DC1;}
</style>
<g id="Layer_1" class="st0">
	<g class="st1">
		<path class="st2" d="M7.6,36.3c2.5,6.9,8.3,12.1,15.3,14.2c1.2,2.4,3.7,4,6.6,4c2.9,0,5.4-1.6,6.6-4c7-2.1,12.8-7.3,15.3-14.2
			c4.2,0,7.5-3.4,7.5-7.6c0-4.2-3.4-7.6-7.5-7.6c-2.8-7.8-9.9-13.5-18.1-14.9c-0.1-0.1-0.3-0.1-0.4-0.1c-0.1,0-0.2,0-0.3,0
			c-1-0.1-2-0.2-3.1-0.2C19.7,5.8,10.9,12,7.6,21c-4.2,0-7.5,3.4-7.5,7.6C0.1,32.8,3.4,36.2,7.6,36.3z M34.7,47.1c0,0.4,0,0.7-0.1,1
			c-0.4,1.6-2.1,3.6-3.5,4.1c-0.5,0.2-1,0.3-1.5,0.3c-0.5,0-1-0.1-1.5-0.3c-1.5-0.5-3.2-2.6-3.5-4.1c-0.1-0.3-0.1-0.7-0.1-1l-2.3,0
			c0,0,0,0.1,0,0.1C16.4,45,11.8,40.3,10,34.4l-0.4-1.2l-1.2,0.2c-0.3,0-0.5,0.1-0.7,0.1c-2.6,0-4.8-2.1-4.8-4.8
			c0-2.6,2.1-4.8,4.8-4.8c0.2,0,0.4,0,0.7,0.1l1.2,0.2l0.4-1.2c1.7-5.7,6-10.2,11.3-12.5c-1.2,2.6,0.4,5.9,3.1,7.2
			c3.4,1.6,8.8,1.8,11.1-1.7c1-1.6,0.1-3.5-1.1-4.6c-1.8-1.5-4.3-1.7-6.4-0.9c-1.7,0.7-1,3.4,0.8,2.7c1.2-0.5,2.4-0.5,3.6,0.1
			c1.6,0.9,0.1,1.9-1,2.2c-2.1,0.6-5.3,0.1-6.9-1.4c-2.1-1.9,0.6-4,2.3-4.6c1.8-0.6,3.8-0.8,5.7-0.7c7.8,1.1,14.4,6.6,16.7,14
			l0.4,1.2l1.2-0.2c0.3,0,0.5-0.1,0.7-0.1c2.6,0,4.8,2.1,4.8,4.8c0,2.6-2.1,4.8-4.8,4.8c-0.2,0-0.4,0-0.7-0.1l-1.2-0.2l-0.4,1.2
			c-1.8,6-6.4,10.6-12.1,12.8c0,0,0-0.1,0-0.1L34.7,47.1z"/>
		<path class="st2" d="M23.5,31.5c2.5,0,2.5-3.8,0-3.8S21.1,31.5,23.5,31.5z"/>
		<path class="st2" d="M35.6,31.2c2.5,0,2.5-3.8,0-3.8C33.1,27.4,33.1,31.2,35.6,31.2z"/>
	</g>
	<path class="st3" d="M35.9,43.4L35.9,43.4c0.6-0.7,1-1.6,1-2.6c0-2.9-3.1-5-7.3-5s-7.3,2.1-7.3,5c0,1,0.4,1.9,1,2.6
		c-0.7,1.1-1,2.4-1,3.8c0,4.1,3.3,7.4,7.4,7.4s7.4-3.3,7.4-7.4C36.9,45.8,36.5,44.5,35.9,43.4z M35.5,42.9
		C35.5,42.9,35.5,42.9,35.5,42.9C35.5,42.9,35.5,42.9,35.5,42.9z M35.1,42.4C35.1,42.4,35.1,42.4,35.1,42.4
		C35.1,42.4,35.1,42.4,35.1,42.4z M34.7,41.9C34.7,41.9,34.7,41.9,34.7,41.9C34.7,41.9,34.7,41.9,34.7,41.9z M29.5,38.3
		c2.7,0,4.8,1.1,4.8,2.5c0,0.2-0.1,0.5-0.2,0.7c-1.3-1-2.9-1.7-4.7-1.7c-1.8,0-3.4,0.6-4.7,1.7c-0.1-0.2-0.2-0.4-0.2-0.7
		C24.7,39.4,26.9,38.3,29.5,38.3z M24.4,41.9C24.4,41.9,24.4,41.9,24.4,41.9C24.4,41.9,24.4,41.9,24.4,41.9z M23.6,42.9
		C23.6,42.9,23.5,42.9,23.6,42.9C23.5,42.9,23.6,42.9,23.6,42.9z M24,42.4C24,42.4,23.9,42.4,24,42.4C23.9,42.4,24,42.4,24,42.4z
		 M29.5,51.8c-2.6,0-4.6-2.1-4.6-4.6c0-2.6,2.1-4.6,4.6-4.6s4.6,2.1,4.6,4.6C34.2,49.8,32.1,51.8,29.5,51.8z"/>
</g>
<g id="Layer_2" class="st0">
	<g class="st1">
		<g>
			<g>
				<path class="st2" d="M8,11.4c-0.4-0.4-1-0.5-1.5-0.2l-1,0.8l-1.2,0.9c-0.4,0.4-0.5,1-0.2,1.5s1,0.5,1.5,0.2l1.2-0.9l1-0.8
					C8.3,12.5,8.3,11.8,8,11.4z"/>
				<path class="st2" d="M5,14.9c0,0-0.1,0-0.1,0c-0.3,0-0.6-0.2-0.8-0.4c-0.4-0.5-0.3-1.3,0.2-1.7l2.2-1.7c0.2-0.2,0.6-0.3,0.9-0.2
					c0.3,0,0.6,0.2,0.8,0.4l0,0c0.2,0.2,0.3,0.6,0.2,0.9c0,0.3-0.2,0.6-0.4,0.8l-2.2,1.7C5.5,14.8,5.3,14.9,5,14.9z M7.2,11.1
					c-0.2,0-0.4,0.1-0.5,0.2L4.5,13c-0.4,0.3-0.5,0.9-0.1,1.2c0.1,0.2,0.4,0.3,0.6,0.3c0.2,0,0.5,0,0.7-0.2l2.2-1.7
					c0.2-0.1,0.3-0.4,0.3-0.6c0-0.2,0-0.5-0.2-0.7l0,0c-0.1-0.2-0.4-0.3-0.6-0.3C7.2,11.1,7.2,11.1,7.2,11.1z"/>
			</g>
			<g>
				<path class="st2" d="M14,6.7c0.4,0.4,1,0.5,1.5,0.2l1-0.8l1.2-0.9c0.4-0.4,0.5-1,0.2-1.5c-0.4-0.4-1-0.5-1.5-0.2l-1.2,0.9
					l-1,0.8C13.7,5.6,13.6,6.2,14,6.7z"/>
				<path class="st2" d="M14.8,7.2c0,0-0.1,0-0.1,0c-0.3,0-0.6-0.2-0.8-0.4l0,0c-0.2-0.2-0.3-0.6-0.2-0.9c0-0.3,0.2-0.6,0.4-0.8
					l2.2-1.7c0.2-0.2,0.6-0.3,0.9-0.2c0.3,0,0.6,0.2,0.8,0.4c0.2,0.2,0.3,0.6,0.2,0.9c0,0.3-0.2,0.6-0.4,0.8L15.5,7
					C15.3,7.1,15,7.2,14.8,7.2z M16.9,3.4c-0.2,0-0.4,0.1-0.5,0.2l-2.2,1.7c-0.2,0.1-0.3,0.4-0.3,0.6c0,0.2,0,0.5,0.2,0.7l0,0
					c0.1,0.2,0.4,0.3,0.6,0.3c0.2,0,0.5,0,0.7-0.2L17.5,5c0.2-0.1,0.3-0.4,0.3-0.6c0-0.2,0-0.5-0.2-0.7c-0.1-0.2-0.4-0.3-0.6-0.3
					C17,3.4,17,3.4,16.9,3.4z"/>
			</g>
			<g>
				<path class="st2" d="M10.5,12.8c-0.6-0.1-1.1,0.3-1.2,0.9L9.2,15L9,16.4C9,17,9.4,17.5,10,17.6c0.3,0,0.6-0.1,0.8-0.2
					c0.2-0.2,0.4-0.4,0.4-0.7l0.2-1.5l0.2-1.3C11.5,13.4,11.1,12.9,10.5,12.8z"/>
				<path class="st2" d="M10.1,17.7c0,0-0.1,0-0.1,0c-0.3,0-0.6-0.2-0.8-0.4C9,17,8.9,16.7,8.9,16.4l0.3-2.7c0-0.3,0.2-0.6,0.4-0.8
					s0.6-0.3,0.9-0.2l0,0l0,0l0,0c0.3,0,0.6,0.2,0.8,0.4c0.2,0.2,0.3,0.6,0.2,0.9l-0.3,2.7c0,0.3-0.2,0.6-0.4,0.8
					C10.6,17.7,10.3,17.7,10.1,17.7z M10.4,12.9c-0.2,0-0.4,0.1-0.5,0.2c-0.2,0.1-0.3,0.4-0.3,0.6l-0.3,2.7c0,0.2,0,0.5,0.2,0.7
					c0.1,0.2,0.4,0.3,0.6,0.3c0.2,0,0.5,0,0.7-0.2c0.2-0.1,0.3-0.4,0.3-0.6l0.3-2.7c0-0.2,0-0.5-0.2-0.7c-0.1-0.2-0.4-0.3-0.6-0.3
					l0,0C10.5,12.9,10.4,12.9,10.4,12.9z"/>
			</g>
			<g>
				<path class="st2" d="M11.4,5.3c0.3,0,0.6-0.1,0.8-0.2c0.2-0.2,0.4-0.4,0.4-0.7l0.2-1.3l0.2-1.5C13,1,12.6,0.5,12,0.5
					c-0.6-0.1-1.1,0.3-1.2,0.9l-0.2,1.5l-0.2,1.3C10.5,4.7,10.9,5.2,11.4,5.3z"/>
				<path class="st2" d="M11.6,5.4c0,0-0.1,0-0.1,0c-0.3,0-0.6-0.2-0.8-0.4c-0.2-0.2-0.3-0.6-0.2-0.9l0.3-2.7c0-0.3,0.2-0.6,0.4-0.8
					c0.2-0.2,0.6-0.3,0.9-0.2c0.3,0,0.6,0.2,0.8,0.4s0.3,0.6,0.2,0.9l-0.3,2.7c0,0.3-0.2,0.6-0.4,0.8C12.1,5.3,11.8,5.4,11.6,5.4z
					 M11.9,0.6c-0.2,0-0.4,0.1-0.5,0.2C11.1,0.9,11,1.1,11,1.4l-0.3,2.7c0,0.2,0,0.5,0.2,0.7C11,5,11.2,5.1,11.4,5.1l0,0
					c0.2,0,0.5,0,0.7-0.2c0.2-0.1,0.3-0.4,0.3-0.6l0.3-2.7c0-0.2,0-0.5-0.2-0.7c-0.1-0.2-0.4-0.3-0.6-0.3
					C11.9,0.6,11.9,0.6,11.9,0.6z"/>
			</g>
			<g>
				<path class="st2" d="M6.8,9.3C7,9.1,7.2,8.9,7.2,8.6C7.3,8,6.9,7.5,6.3,7.4L5,7.3L3.6,7.1C3,7,2.5,7.4,2.4,8
					C2.3,8.6,2.8,9.1,3.3,9.2l1.5,0.2l1.3,0.2C6.3,9.5,6.6,9.4,6.8,9.3z"/>
				<path class="st2" d="M6.2,9.6c0,0-0.1,0-0.1,0L3.3,9.3C2.7,9.2,2.2,8.6,2.3,8c0-0.3,0.2-0.6,0.4-0.8C3,7,3.3,6.9,3.6,7l2.7,0.3
					c0.3,0,0.6,0.2,0.8,0.4C7.3,8,7.4,8.3,7.4,8.6c0,0.3-0.2,0.6-0.4,0.8C6.7,9.5,6.4,9.6,6.2,9.6z M3.4,7.2C3.2,7.2,3,7.3,2.9,7.4
					C2.7,7.6,2.6,7.8,2.6,8C2.5,8.5,2.8,8.9,3.3,9l2.7,0.3c0.2,0,0.5,0,0.7-0.2l0,0C6.9,9,7,8.8,7.1,8.6c0-0.2,0-0.5-0.2-0.7
					C6.7,7.7,6.5,7.6,6.3,7.6L3.5,7.2C3.5,7.2,3.5,7.2,3.4,7.2z"/>
			</g>
			<g>
				<path class="st2" d="M14.7,9.5c-0.1,0.6,0.3,1.1,0.9,1.2l1.3,0.2l1.5,0.2c0.3,0,0.6-0.1,0.8-0.2c0.2-0.2,0.4-0.4,0.4-0.7
					c0.1-0.6-0.3-1.1-0.9-1.2l-1.5-0.2l-1.3-0.2C15.3,8.5,14.8,8.9,14.7,9.5z"/>
				<path class="st2" d="M18.5,11.1c0,0-0.1,0-0.1,0l-2.7-0.3c-0.6-0.1-1.1-0.7-1-1.3l0,0c0-0.3,0.2-0.6,0.4-0.8
					c0.2-0.2,0.6-0.3,0.9-0.2l2.7,0.3c0.3,0,0.6,0.2,0.8,0.4c0.2,0.2,0.3,0.6,0.2,0.9c0,0.3-0.2,0.6-0.4,0.8
					C19,11,18.8,11.1,18.5,11.1z M14.9,9.5c-0.1,0.5,0.3,0.9,0.8,1l2.7,0.3c0.2,0,0.5,0,0.7-0.2c0.2-0.1,0.3-0.4,0.3-0.6
					c0-0.2,0-0.5-0.2-0.7c-0.1-0.2-0.4-0.3-0.6-0.3l-2.7-0.3c-0.2,0-0.5,0-0.7,0.2C15,9,14.9,9.3,14.9,9.5L14.9,9.5z"/>
			</g>
			<g>
				<path class="st2" d="M8.6,6c0.4-0.4,0.5-1,0.2-1.5L8,3.6L7.1,2.4C6.7,2,6.1,1.9,5.6,2.2s-0.5,1-0.2,1.5l0.9,1.2l0.8,1
					C7.5,6.3,8.2,6.4,8.6,6z"/>
				<path class="st2" d="M8,6.4C7.6,6.4,7.3,6.3,7.1,6L5.4,3.8C5,3.3,5,2.5,5.6,2.1c0.2-0.2,0.6-0.3,0.9-0.2c0.3,0,0.6,0.2,0.8,0.4
					l1.7,2.2c0.2,0.2,0.3,0.6,0.2,0.9C9.1,5.7,9,6,8.7,6.2h0C8.5,6.3,8.2,6.4,8,6.4z M6.3,2.2c-0.2,0-0.4,0.1-0.5,0.2
					C5.5,2.5,5.4,2.7,5.4,3c0,0.2,0,0.5,0.2,0.7l1.7,2.2c0.3,0.4,0.9,0.5,1.2,0.1l0,0C8.9,5.6,9,5.1,8.7,4.7L7,2.5
					C6.8,2.3,6.6,2.2,6.4,2.2C6.4,2.2,6.3,2.2,6.3,2.2z"/>
			</g>
			<g>
				<path class="st2" d="M56.3,34.8L40.6,26c0,0-24.4-13.7-24.4-13.7l-2.6-1.5c-0.4-0.2-0.8-0.2-1.1,0.1c-0.3,0.3-0.5,0.7-0.4,1.1
					l0.8,2.9l7.6,26.9c0,0,4.9,17.3,4.9,17.3c0.1,0.4,0.5,0.8,1,0.8c7,0,13.9-2.4,19.4-6.7S55.2,42.8,56.8,36
					C56.9,35.5,56.7,35,56.3,34.8z M44.5,51.6c-4.9,3.9-11.1,6.1-17.3,6.3l-1.8-6.5c1.8-0.3,3.6-0.8,5.3-1.4c0.1,0,0.2-0.1,0.3-0.2
					c0.3-0.3,0.5-0.7,0.3-1.2c0,0,0,0,0,0c0,0,0,0,0-0.1c-0.2-0.5-0.8-0.7-1.3-0.5c-1.7,0.6-3.4,1.1-5.1,1.3l-2-7.1
					c3.7-1.1,7.2-3,10.2-5.3c3-2.4,5.6-5.3,7.6-8.6l6.4,3.6c-2.6,6.2-7.3,11.3-13.3,14.5c-0.5,0.3-0.7,0.8-0.5,1.3c0,0,0,0,0,0.1
					c0,0,0,0,0,0c0.3,0.5,0.9,0.7,1.4,0.4c1.7-0.9,3.3-1.9,4.8-3.1c4.1-3.2,7.3-7.4,9.4-12.2l5.9,3.3C53,42.3,49.4,47.7,44.5,51.6z
					 M20.1,32.7c1.6-0.7,3.2-1.6,4.7-2.7c0,0,0,0,0.1,0c0.4-0.3,0.5-0.9,0.2-1.4c0,0,0,0,0,0c-0.3-0.5-1-0.6-1.4-0.3
					c-1.3,0.9-2.7,1.7-4.1,2.4l-2.3-8c1-0.6,2-1.3,2.9-2c0.9-0.7,1.8-1.5,2.6-2.3l7.3,4.1c-1,1.2-2.1,2.4-3.3,3.5
					c-0.4,0.4-0.5,1-0.1,1.4c0,0,0,0,0,0c0.4,0.4,1,0.5,1.4,0.1c0,0,0,0,0.1,0c1.3-1.2,2.6-2.5,3.7-4l6.8,3.8
					c-3.7,6.2-9.6,10.9-16.5,13L20.1,32.7z M16.7,20.6l-1.9-6.8l6.1,3.4C19.6,18.5,18.2,19.6,16.7,20.6z"/>
				<path class="st2" d="M26.4,60.1C26.4,60.1,26.4,60.1,26.4,60.1c-0.6,0-1-0.4-1.2-0.9c0,0-4.9-17.3-4.9-17.3L12,12.1
					c-0.1-0.5,0-1,0.4-1.2c0.4-0.3,0.9-0.3,1.3-0.1l2.6,1.5c24.4,13.7,24.4,13.7,24.4,13.7l15.7,8.8c0.5,0.3,0.7,0.8,0.6,1.3
					c-1.6,6.8-5.6,13-11.1,17.3C40.3,57.7,33.4,60.1,26.4,60.1z M13.1,10.8c-0.2,0-0.4,0.1-0.5,0.2c-0.3,0.2-0.4,0.6-0.3,0.9
					l8.4,29.8c0,0,2.6,9.4,4.9,17.3c0.1,0.4,0.5,0.6,0.9,0.6c0,0,0,0,0,0c6.9,0,13.8-2.4,19.2-6.7c5.5-4.3,9.4-10.4,11-17.2
					c0.1-0.4-0.1-0.8-0.4-1l-15.7-8.8c-0.1,0-24.1-13.6-24.4-13.7L13.5,11C13.4,10.9,13.3,10.8,13.1,10.8z M27,58l-1.9-6.8l0.2,0
					c1.8-0.3,3.6-0.8,5.3-1.4c0.1,0,0.2-0.1,0.2-0.1c0.3-0.2,0.4-0.6,0.3-1c0,0,0-0.1,0-0.1c-0.2-0.4-0.7-0.6-1.1-0.5
					c-1.7,0.6-3.4,1.1-5.2,1.3l-0.1,0l-2.1-7.3l0.1,0c3.7-1.1,7.1-2.9,10.1-5.3c3-2.4,5.6-5.3,7.6-8.6l0.1-0.1l6.6,3.7L47,32
					c-2.6,6.2-7.4,11.4-13.4,14.5c-0.4,0.2-0.6,0.7-0.4,1.1c0,0,0,0,0,0.1c0.1,0.2,0.3,0.4,0.5,0.4c0.2,0.1,0.5,0,0.7-0.1
					c1.7-0.9,3.3-1.9,4.8-3.1c4.1-3.2,7.3-7.4,9.3-12.1l0.1-0.1l6.1,3.4l0,0.1c-1.6,6.1-5.3,11.5-10.2,15.4
					c-5,3.9-11.1,6.1-17.4,6.3L27,58z M25.5,51.5l1.8,6.2c6.2-0.2,12.3-2.4,17.1-6.2c4.9-3.8,8.4-9.2,10.1-15.2l-5.7-3.2
					c-2.1,4.7-5.3,8.9-9.4,12.1c-1.5,1.2-3.1,2.2-4.8,3.1c-0.3,0.1-0.6,0.2-0.9,0.1c-0.3-0.1-0.5-0.3-0.7-0.6c0,0,0-0.1,0-0.1
					c-0.2-0.6,0-1.2,0.5-1.5c5.9-3.1,10.6-8.2,13.2-14.3l-6.1-3.5c-2,3.3-4.5,6.2-7.5,8.5c-3,2.4-6.4,4.2-10.1,5.3l1.9,6.8
					c1.7-0.3,3.4-0.7,5-1.3c0.6-0.2,1.2,0.1,1.5,0.6c0,0,0,0,0,0.1c0.2,0.5,0,1-0.4,1.3c-0.1,0.1-0.2,0.1-0.3,0.2
					C29,50.7,27.2,51.1,25.5,51.5z M22.1,40.5l-2.2-7.8l0.1-0.1c1.6-0.7,3.2-1.6,4.7-2.6c0,0,0,0,0.1,0c0.4-0.3,0.4-0.8,0.2-1.2
					c-0.3-0.4-0.8-0.5-1.2-0.2c-1.3,0.9-2.7,1.7-4.2,2.4l-0.2,0.1l-2.3-8.3l0.1-0.1c1-0.6,2-1.3,2.9-2c0.9-0.7,1.8-1.5,2.6-2.3
					l0.1-0.1l7.5,4.2l-0.1,0.1c-1,1.3-2.1,2.4-3.3,3.5c-0.4,0.3-0.4,0.9-0.1,1.2c0.3,0.4,0.9,0.4,1.2,0.1c0,0,0,0,0,0
					c1.3-1.2,2.6-2.5,3.7-4l0.1-0.1l7.1,4l-0.1,0.1c-3.7,6.3-9.6,10.9-16.6,13.1L22.1,40.5z M20.3,32.8l2,7.3
					c6.8-2.1,12.5-6.7,16.2-12.7l-6.6-3.7c-1.1,1.4-2.3,2.7-3.6,3.9c0,0,0,0-0.1,0.1c-0.5,0.4-1.2,0.3-1.6-0.1
					c-0.4-0.5-0.4-1.2,0.1-1.7c1.1-1,2.2-2.1,3.1-3.3l-7-3.9c-0.8,0.8-1.7,1.6-2.6,2.3c-0.9,0.7-1.8,1.4-2.8,2l2.2,7.8
					c1.4-0.7,2.7-1.4,4-2.3c0.5-0.4,1.3-0.2,1.6,0.3c0.4,0.5,0.3,1.2-0.2,1.6c0,0,0,0-0.1,0C23.4,31.2,21.9,32.1,20.3,32.8z
					 M16.6,20.9l-2-7.3l6.6,3.7L21,17.4c-1.3,1.2-2.7,2.4-4.2,3.3L16.6,20.9z M15,14.2l1.7,6.2c1.4-0.9,2.7-1.9,3.9-3.1L15,14.2z"/>
			</g>
		</g>
		<path class="st4" d="M20.9,17.3c-1.3,1.2-2.7,2.3-4.2,3.3l0.6,2.1c1-0.6,2-1.3,2.9-2c0.9-0.7,1.8-1.5,2.6-2.3L20.9,17.3z"/>
		<path class="st5" d="M19.5,30.7l0.6,2c0,0,6.4-2.5,11.8-9.3l-1.8-1C30.1,22.4,24.3,28.6,19.5,30.7z"/>
		<path class="st4" d="M22.2,40.3l0.6,2c0,0,11-2.6,17.8-14l-2.1-1C38.4,27.3,34.4,36.3,22.2,40.3z"/>
		<path class="st5" d="M24.7,49.3l0.6,2c0,0,16.4-2.1,23.4-18.4l-1.8-1C46.9,31.9,42.1,45.6,24.7,49.3z"/>
	</g>
</g>
<g id="Layer_3" class="st0">
	<path class="st6" d="M18.2,27C9.7,27,2.8,33.9,2.8,42.4c0,8.5,6.9,15.4,15.4,15.4s15.4-6.9,15.4-15.4C33.6,33.9,26.7,27,18.2,27z
		 M18.2,54.4c-6.6,0-12-5.4-12-12c0-6.6,5.4-12,12-12s12,5.4,12,12C30.2,49.1,24.8,54.4,18.2,54.4z"/>
	<path class="st6" d="M37.3,27c-8.5,0-15.4,6.9-15.4,15.4c0,8.5,6.9,15.4,15.4,15.4s15.4-6.9,15.4-15.4C52.7,33.9,45.8,27,37.3,27z
		 M37.3,54.4c-6.6,0-12-5.4-12-12c0-6.6,5.4-12,12-12s12,5.4,12,12C49.3,49.1,43.9,54.4,37.3,54.4z"/>
	<path class="st7" d="M18,7.5c-0.7,0-1.2-0.5-1.2-1.2V1.5c0-0.7,0.5-1.2,1.2-1.2s1.2,0.5,1.2,1.2v4.8C19.2,6.9,18.7,7.5,18,7.5z"/>
	<path class="st7" d="M7.1,12.2c-0.3,0-0.6-0.1-0.8-0.3L2.9,8.4C2.7,8.2,2.5,7.9,2.5,7.6c0-0.3,0.1-0.6,0.3-0.8
		c0.2-0.2,0.5-0.3,0.8-0.3h0c0.3,0,0.6,0.1,0.8,0.3l3.4,3.4c0.2,0.2,0.3,0.5,0.3,0.8c0,0.3-0.1,0.6-0.3,0.8
		C7.7,12,7.4,12.2,7.1,12.2z"/>
	<g class="st1">
		<path class="st2" d="M28.9,12.2c-0.3,0-0.6-0.1-0.8-0.3c-0.2-0.2-0.3-0.5-0.3-0.8s0.1-0.6,0.3-0.8l3.4-3.4c0.5-0.5,1.2-0.5,1.7,0
			c0.2,0.2,0.3,0.5,0.3,0.8s-0.1,0.6-0.3,0.8l-3.4,3.4C29.5,12,29.2,12.2,28.9,12.2z"/>
	</g>
	<g class="st1">
		<path class="st2" d="M15.1,25.4C7.1,26.9,1,33.9,1,42.3c0,9.4,7.7,17.1,17.1,17.1c3.6,0,6.9-1.1,9.8-3.1c2.8,2,6.2,3.1,9.8,3.1
			c9.4,0,17.1-7.7,17.1-17.1c0-9.4-7.7-17.1-17.1-17.1c-3.6,0-6.9,1.1-9.8,3.1c-2-1.4-4.3-2.4-6.7-2.8 M3.1,42.3c0-8.3,6.7-15,15-15
			s15,6.7,15,15c0,2.7-0.7,5.3-2.1,7.6c-0.7-0.6-1.4-1.4-1.9-2.2c0.8-1.7,1.3-3.5,1.3-5.4c0-6.8-5.5-12.3-12.3-12.3
			S5.8,35.5,5.8,42.3s5.5,12.3,12.3,12.3c2.2,0,4.4-0.6,6.2-1.7c0.6,0.7,1.2,1.4,1.9,2c-2.4,1.6-5.2,2.4-8.1,2.4
			C9.8,57.3,3.1,50.5,3.1,42.3z M18.1,52.5c-5.6,0-10.2-4.6-10.2-10.2c0-5.6,4.6-10.2,10.2-10.2c1.8,0,3.5,0.5,5,1.3
			c-1.6,2.7-2.5,5.7-2.5,8.9c0,3.2,0.9,6.3,2.5,8.9C21.6,52,19.9,52.5,18.1,52.5z M27.9,39.5c0.2,0.9,0.4,1.8,0.4,2.7
			c0,0.9-0.1,1.8-0.4,2.7c-0.2-0.9-0.4-1.8-0.4-2.7C27.6,41.3,27.7,40.4,27.9,39.5z M32.7,33.4c1.5-0.9,3.3-1.3,5-1.3
			c5.6,0,10.2,4.6,10.2,10.2c0,5.6-4.6,10.2-10.2,10.2c-1.8,0-3.5-0.5-5-1.3c1.6-2.7,2.5-5.7,2.5-8.9C35.2,39,34.3,36,32.7,33.4z
			 M18.1,24.9 M37.8,57.3c-8.3,0-15-6.7-15-15c0-2.7,0.7-5.3,2.1-7.6c0.7,0.6,1.4,1.4,1.9,2.2c-0.8,1.7-1.3,3.5-1.3,5.4
			c0,6.8,5.5,12.3,12.3,12.3S50.1,49,50.1,42.3S44.5,30,37.8,30c-2.2,0-4.4,0.6-6.2,1.7c-0.6-0.7-1.2-1.4-1.9-2
			c2.4-1.6,5.2-2.4,8.1-2.4c8.3,0,15,6.7,15,15C52.8,50.5,46,57.3,37.8,57.3z"/>
		<path class="st2" d="M37.8,59.5c-3.5,0-6.9-1.1-9.8-3.1c-2.9,2-6.3,3.1-9.8,3.1c-9.5,0-17.2-7.7-17.2-17.2c0-8.4,6-15.5,14.2-17
			l0,0.3C7,27,1.1,34,1.1,42.3c0,9.4,7.6,17,17,17c3.5,0,6.9-1.1,9.8-3.1l0.1-0.1l0.1,0.1c2.9,2,6.2,3.1,9.7,3.1c9.4,0,17-7.6,17-17
			c0-9.4-7.6-17-17-17c-3.5,0-6.9,1.1-9.7,3.1l-0.1,0.1l-0.1-0.1c-2-1.4-4.3-2.4-6.7-2.8l0-0.3c2.4,0.4,4.7,1.4,6.7,2.8
			c2.9-2,6.3-3.1,9.8-3.1C47.3,25,55,32.8,55,42.3C55,51.8,47.3,59.5,37.8,59.5z M37.8,57.4c-8.4,0-15.1-6.8-15.1-15.1
			c0-2.7,0.7-5.4,2.1-7.7l0.1-0.1l0.1,0.1c0.7,0.6,1.4,1.4,1.9,2.2l0,0.1l0,0.1c-0.8,1.7-1.3,3.5-1.3,5.4c0,6.7,5.5,12.2,12.2,12.2
			S49.9,49,49.9,42.3c0-6.7-5.5-12.2-12.2-12.2c-2.2,0-4.3,0.6-6.2,1.7l-0.1,0.1l-0.1-0.1c-0.6-0.7-1.2-1.4-1.9-2l-0.1-0.1l0.2-0.1
			c2.4-1.6,5.3-2.4,8.2-2.4c8.4,0,15.1,6.8,15.1,15.1C52.9,50.6,46.1,57.4,37.8,57.4z M24.9,34.8c-1.3,2.3-2,4.8-2,7.4
			c0,8.2,6.7,14.9,14.9,14.9s14.9-6.7,14.9-14.9c0-8.2-6.7-14.9-14.9-14.9c-2.8,0-5.5,0.8-7.9,2.3c0.6,0.6,1.2,1.2,1.7,1.8
			c1.9-1.1,4-1.7,6.2-1.7c6.9,0,12.4,5.6,12.4,12.4c0,6.9-5.6,12.4-12.4,12.4c-6.9,0-12.4-5.6-12.4-12.4c0-1.9,0.4-3.7,1.2-5.4
			C26.1,36.1,25.5,35.4,24.9,34.8z M18.1,57.4C9.8,57.4,3,50.6,3,42.3c0-8.3,6.8-15.1,15.1-15.1c8.3,0,15.1,6.8,15.1,15.1
			c0,2.7-0.7,5.4-2.1,7.7l-0.1,0.1L30.9,50c-0.7-0.6-1.4-1.4-1.9-2.2l0-0.1l0-0.1c0.8-1.7,1.3-3.5,1.3-5.4c0-6.7-5.5-12.2-12.2-12.2
			S5.9,35.6,5.9,42.3s5.5,12.2,12.2,12.2c2.2,0,4.3-0.6,6.2-1.7l0.1-0.1l0.1,0.1c0.6,0.7,1.2,1.4,1.9,2l0.1,0.1L26.3,55
			C23.9,56.6,21,57.4,18.1,57.4z M18.1,27.4c-8.2,0-14.9,6.7-14.9,14.9c0,8.2,6.7,14.9,14.9,14.9c2.8,0,5.5-0.8,7.9-2.3
			c-0.6-0.6-1.2-1.2-1.7-1.8c-1.9,1.1-4,1.7-6.2,1.7c-6.9,0-12.4-5.6-12.4-12.4c0-6.9,5.6-12.4,12.4-12.4c6.9,0,12.4,5.6,12.4,12.4
			c0,1.9-0.4,3.7-1.2,5.4c0.5,0.7,1,1.4,1.7,2c1.3-2.3,2-4.8,2-7.4C33,34.1,26.3,27.4,18.1,27.4z M37.8,52.6c-1.8,0-3.5-0.5-5.1-1.3
			l-0.1-0.1l0.1-0.1c1.6-2.6,2.5-5.7,2.5-8.8c0-3.1-0.9-6.2-2.5-8.8l-0.1-0.1l0.1-0.1c1.5-0.9,3.3-1.3,5.1-1.3
			c5.7,0,10.3,4.6,10.3,10.3C48.1,48,43.5,52.6,37.8,52.6z M32.9,51.1c1.5,0.8,3.1,1.2,4.8,1.2c5.5,0,10.1-4.5,10.1-10.1
			c0-5.5-4.5-10.1-10.1-10.1c-1.7,0-3.4,0.4-4.8,1.2c1.6,2.7,2.4,5.7,2.4,8.8C35.3,45.4,34.5,48.4,32.9,51.1z M18.1,52.6
			c-5.7,0-10.3-4.6-10.3-10.3c0-5.7,4.6-10.3,10.3-10.3c1.8,0,3.5,0.5,5.1,1.3l0.1,0.1l-0.1,0.1c-1.6,2.6-2.5,5.7-2.5,8.8
			c0,3.1,0.9,6.2,2.5,8.8l0.1,0.1l-0.1,0.1C21.7,52.1,19.9,52.6,18.1,52.6z M18.1,32.2C12.6,32.2,8,36.7,8,42.3
			c0,5.5,4.5,10.1,10.1,10.1c1.7,0,3.4-0.4,4.8-1.2c-1.6-2.7-2.4-5.7-2.4-8.8c0-3.1,0.8-6.2,2.4-8.8C21.5,32.6,19.8,32.2,18.1,32.2z
			 M27.9,45.5L27.8,45c-0.3-0.9-0.4-1.8-0.4-2.8c0-0.9,0.1-1.9,0.4-2.8l0.1-0.5l0.1,0.5c0.3,0.9,0.4,1.8,0.4,2.8
			c0,0.9-0.1,1.9-0.4,2.8L27.9,45.5z M27.9,40.1c-0.2,0.7-0.2,1.4-0.2,2.2c0,0.7,0.1,1.5,0.2,2.2c0.2-0.7,0.2-1.4,0.2-2.2
			C28.2,41.5,28.1,40.8,27.9,40.1z"/>
	</g>
	<path class="st8" d="M21,25.6l6.7-4.4c0.4-0.3,0.6-0.8,0.4-1.2l-2-5.3c-0.2-0.4-0.5-0.7-1-0.7H10.8c-0.4,0-0.8,0.3-1,0.7l-2,5.3
		c-0.2,0.5,0,1,0.4,1.2l6.7,4.4L21,25.6z M18,30.1 M18,27.4 M23.3,19.3H12.7l5.3-3.1L23.3,19.3z M24.4,16l0.7,1.9L21.9,16H24.4z
		 M11.6,16h2.6L10.9,18L11.6,16z M12.4,21.4h11.3L18,25.1L12.4,21.4z"/>
</g>
<g id="Layer_4" class="st0">
	<g class="st1">
		<g>
			<path class="st2" d="M18.4,7.6 M41,7.6 M18.4,7.6h-6.9c-0.6,0-1.1,0.5-1.1,1.1v15.3H1.5c-0.6,0-1.1,0.5-1.1,1.1v3.2v14.5v7.2
				c0,0.6,0.5,1.1,1.1,1.1h56.3c0.6,0,1.1-0.5,1.1-1.1V25c0-0.6-0.5-1.1-1.1-1.1h-8.9V8.6c0-0.6-0.5-1.1-1.1-1.1H41L18.4,7.6z
				 M12.5,9.7h34.3v4.7c-2.4,4.5-7.5,4.6-8.1,4.6c0,0,0,0-0.1,0c0,0,0,0,0,0c-5.7,0-7.9-4.9-8-5.1c-0.2-0.4-0.5-0.6-1-0.6
				c0,0,0,0,0,0c-0.4,0-0.8,0.2-1,0.6c-2.2,4.8-7.4,5.1-8.4,5.1c0,0-0.1,0-0.1,0c0,0,0,0,0,0c-4.6,0-6.9-3.2-7.7-4.6L12.5,9.7
				L12.5,9.7z M56.7,43.1v5.7H2.6v-6.1v-3c1.6,1.5,4.1,2.8,7.4,2.8c0,0,0.1,0,0.2,0c1.1,0,6.6-0.2,9.8-4.9c1.4,2,4.3,4.9,9.3,4.9
				c0.5,0,6.5,0.1,9.9-4.9c1.4,2,4.3,4.9,9.3,4.9c0.4,0,4.7,0,8.1-3L56.7,43.1L56.7,43.1z M56.7,28.6v7.3v0.4
				c-2.8,4.1-8,4.1-8.1,4.1c0,0,0,0,0,0c-6,0-8.3-5.1-8.4-5.3c-0.2-0.4-0.5-0.6-1-0.6c0,0,0,0,0,0c-0.4,0-0.8,0.2-1,0.6
				c-2.5,5.5-8.6,5.4-8.9,5.4c0,0,0,0,0,0c-5.8,0-8.2-4.8-8.4-5.3c-0.2-0.4-0.5-0.7-1-0.7c-0.4,0-0.8,0.3-1,0.7
				c-2.5,5.5-8.6,5.4-8.9,5.3c0,0,0,0,0,0c-3.8,0-6.1-2-7.5-3.9v-0.2v-8.1v-2.1h31.8c0.6,0,1.1-0.5,1.1-1.1c0-0.6-0.5-1.1-1.1-1.1
				H12.5v-6c1.6,1.6,4.1,3.2,7.7,3.2c0,0,0.1,0,0.1,0l0,0c1.1,0,6.3-0.2,9.4-4.7c1.3,1.9,4.1,4.7,8.9,4.7c0,0,0.1,0,0.1,0
				c0.6,0,4.9-0.1,8.1-3.2v6h-3.3c-0.6,0-1.1,0.5-1.1,1.1c0,0.6,0.5,1.1,1.1,1.1h4.4h2.3h6.6L56.7,28.6L56.7,28.6z"/>
			<path class="st2" d="M57.8,51H1.5c-0.7,0-1.2-0.5-1.2-1.2V25c0-0.7,0.5-1.2,1.2-1.2h8.8V8.6c0-0.7,0.5-1.2,1.2-1.2l36.4,0
				c0.7,0,1.2,0.5,1.2,1.2v15.2h8.8c0.3,0,0.6,0.1,0.8,0.3c0.2,0.2,0.3,0.5,0.3,0.8v24.8C59,50.5,58.5,51,57.8,51z M1.5,24
				c-0.5,0-1,0.4-1,1v24.8c0,0.5,0.4,1,1,1h56.3c0.5,0,1-0.4,1-1V25c0-0.3-0.1-0.5-0.3-0.7c-0.2-0.2-0.4-0.3-0.7-0.3h-9V8.6
				c0-0.5-0.4-1-1-1l-36.4,0c-0.5,0-1,0.4-1,1V24H1.5z M56.9,48.9H2.5v-9.4l0.2,0.2c2.1,1.9,4.6,2.8,7.4,2.8c0,0,0.1,0,0.2,0
				c1.1,0,6.5-0.2,9.7-4.9l0.1-0.1l0.1,0.1c1.3,1.8,4.2,4.9,9.2,4.9c0.3,0,6.4,0.1,9.8-4.9l0.1-0.1l0.1,0.1c1.3,1.8,4.2,4.9,9.3,4.9
				c0.2,0,4.6,0.1,8.1-3l0.2-0.2L56.9,48.9z M2.7,48.6h53.9l0-8.9c-3.5,2.9-7.8,2.9-8,2.9c-5,0-8-3-9.3-4.8
				c-3.4,4.9-9.3,4.9-9.9,4.8c-5,0-8-3-9.3-4.8c-3.2,4.6-8.7,4.8-9.8,4.8c-0.1,0-0.1,0-0.2,0c-2.8,0-5.3-0.9-7.3-2.7V48.6z
				 M10.2,40.5c-0.1,0-0.1,0-0.1,0c0,0,0,0,0,0c-3.9,0-6.3-2.1-7.6-3.9l0,0V26h31.9c0.5,0,1-0.4,1-1c0-0.5-0.4-1-1-1h-22v-6.4
				l0.2,0.2c1.4,1.4,3.9,3.2,7.6,3.2c0,0,0.1,0,0.1,0c1,0,6.2-0.2,9.3-4.6l0.1-0.1l0.1,0.1c1.2,1.7,4,4.6,8.8,4.6c0,0,0.1,0,0.1,0
				c0.5,0,4.8-0.1,8-3.2l0.2-0.2V24h-3.4c-0.5,0-1,0.4-1,1c0,0.5,0.4,1,1,1h13.4l0,10.4l0,0c-2.7,4-7.6,4.1-8.2,4.1l0,0l0,0
				c-6,0-8.4-5.2-8.5-5.4c-0.2-0.3-0.5-0.6-0.9-0.6c-0.4,0-0.7,0.2-0.9,0.6c-1,2.3-2.9,4-5.4,4.8c-1.9,0.6-3.5,0.6-3.6,0.6
				c0,0,0,0,0,0c-5.8,0-8.2-4.8-8.5-5.4c-0.1-0.4-0.5-0.6-0.9-0.6c-0.4,0-0.7,0.2-0.9,0.6C16.7,40.3,11.1,40.5,10.2,40.5z M2.7,36.5
				c1.3,1.7,3.6,3.8,7.3,3.8c0,0,0,0,0,0c0.3,0,6.3,0.1,8.8-5.3c0.2-0.4,0.6-0.7,1.1-0.7c0.5,0,0.9,0.3,1.1,0.8
				c0.2,0.5,2.6,5.2,8.3,5.2c0,0,0,0,0,0c0.3,0,6.3,0.1,8.8-5.3c0.2-0.4,0.6-0.7,1.1-0.7l0,0c0.5,0,0.9,0.3,1.1,0.7
				c0.1,0.2,2.4,5.3,8.3,5.3l0,0c0.5,0,5.3-0.1,8-4l0-10.1H43.5c-0.7,0-1.2-0.5-1.2-1.2s0.5-1.2,1.2-1.2h3.2v-5.7
				c-3.2,3-7.5,3.1-8,3.1c0,0-0.1,0-0.1,0c-4.8,0-7.6-2.8-8.9-4.6c-3.1,4.4-8.3,4.6-9.4,4.6c-0.1,0-0.1,0-0.1,0
				c-3.6,0-6.1-1.6-7.6-3v5.6h21.8c0.7,0,1.2,0.5,1.2,1.2s-0.5,1.2-1.2,1.2H2.7V36.5z M20.3,19.1C20.3,19.1,20.3,19.1,20.3,19.1
				l-0.1,0c-4.6,0-7-3.2-7.8-4.6l0,0l0-4.8h34.5v4.8l0,0c-2.4,4.5-7.6,4.7-8.2,4.7l-0.1,0c-5.7,0-8-4.9-8.1-5.1
				c-0.2-0.3-0.5-0.6-0.9-0.6c-0.4,0-0.7,0.2-0.9,0.6C26.6,18.8,21.4,19.1,20.3,19.1z M12.6,14.4c0.8,1.4,3.1,4.5,7.6,4.5l0,0
				c0,0,0,0,0.1,0c1,0,6.1-0.2,8.3-5c0.2-0.4,0.6-0.7,1.1-0.7l0,0c0.5,0,0.9,0.3,1.1,0.7c0.1,0.2,2.3,5,7.9,5l0.1,0
				c0.6,0,5.6-0.1,8-4.5V9.8h-34L12.6,14.4z"/>
		</g>
	</g>
	<g class="st1">
		<g>
			<path class="st9" d="M18.4,7.6 M41,7.6 M48.9,16V8.6c0-0.6-0.5-1.1-1.1-1.1H41l-22.6,0h-6.9c-0.6,0-1.1,0.5-1.1,1.1v7.3l2.1,2
				c1.6,1.6,4.1,3.2,7.7,3.2c0,0,0.1,0,0.1,0l0,0c1.1,0,6.3-0.2,9.4-4.7c1.3,1.9,4.1,4.7,8.9,4.7c0,0,0.1,0,0.1,0
				c0.6,0,4.9-0.1,8.1-3.2L48.9,16 M12.5,9.7h34.3v4.7c-2.4,4.5-7.5,4.6-8.1,4.6c0,0,0,0-0.1,0c0,0,0,0,0,0c-5.7,0-7.9-4.9-8-5.1
				c-0.2-0.4-0.5-0.6-1-0.6c0,0,0,0,0,0c-0.4,0-0.8,0.2-1,0.6c-2.2,4.8-7.4,5.1-8.4,5.1c0,0-0.1,0-0.1,0c0,0,0,0,0,0
				c-4.6,0-6.9-3.2-7.7-4.6L12.5,9.7L12.5,9.7z"/>
			<path class="st9" d="M20.3,21.2c-0.1,0-0.1,0-0.1,0c-3.8,0-6.3-1.8-7.8-3.2l-2.2-2V8.6c0-0.7,0.5-1.2,1.2-1.2l36.4,0
				c0.7,0,1.2,0.5,1.2,1.2V16L46.9,18c-3.2,3.2-7.7,3.2-8.2,3.2c0,0-0.1,0-0.1,0c-4.8,0-7.6-2.8-8.9-4.6
				C26.6,21,21.4,21.2,20.3,21.2z M10.5,15.9l2.1,1.9c1.4,1.4,3.9,3.2,7.6,3.2c0,0,0.1,0,0.1,0c1,0,6.2-0.2,9.3-4.6l0.1-0.1l0.1,0.1
				c1.2,1.7,4,4.6,8.8,4.6c0,0,0.1,0,0.1,0c0.5,0,4.8-0.1,8-3.2l2.1-1.9V8.6c0-0.5-0.4-1-1-1l-36.4,0c-0.5,0-1,0.4-1,1V15.9z
				 M20.3,19.1C20.3,19.1,20.3,19.1,20.3,19.1l-0.1,0c-4.6,0-7-3.2-7.8-4.6l0,0l0-4.8h34.5v4.8l0,0c-2.4,4.5-7.6,4.7-8.2,4.7l-0.1,0
				c-5.7,0-8-4.9-8.1-5.1c-0.2-0.3-0.5-0.6-0.9-0.6c-0.4,0-0.7,0.2-0.9,0.6C26.6,18.8,21.4,19.1,20.3,19.1z M12.6,14.4
				c0.8,1.4,3.1,4.5,7.6,4.5l0,0c0,0,0,0,0.1,0c1,0,6.1-0.2,8.3-5c0.2-0.4,0.6-0.7,1.1-0.7l0,0c0.5,0,0.9,0.3,1.1,0.7
				c0.1,0.2,2.3,5,7.9,5l0.1,0c0.6,0,5.6-0.1,8-4.5V9.8h-34L12.6,14.4z"/>
		</g>
	</g>
	<g class="st1">
		<g>
			<path class="st9" d="M58.9,36.3V25c0-0.6-0.5-1.1-1.1-1.1h-8.9l-2.1,0h-3.3c-0.6,0-1.1,0.5-1.1,1.1c0,0.6,0.5,1.1,1.1,1.1h4.4
				h2.3h6.6l0,2.6l0,0v7.3v0.4c-2.8,4.1-8,4.1-8.1,4.1c0,0,0,0,0,0c-6,0-8.3-5.1-8.4-5.3c-0.2-0.4-0.5-0.6-1-0.6c0,0,0,0,0,0
				c-0.4,0-0.8,0.2-1,0.6c-2.5,5.5-8.6,5.4-8.9,5.4c0,0,0,0,0,0c-5.8,0-8.2-4.8-8.4-5.3c-0.2-0.4-0.5-0.7-1-0.7
				c-0.4,0-0.8,0.3-1,0.7c-2.5,5.5-8.6,5.4-8.9,5.3c0,0,0,0,0,0c-3.8,0-6.1-2-7.5-3.9v-0.2v-8.1v-2.1h31.8c0.6,0,1.1-0.5,1.1-1.1
				c0-0.6-0.5-1.1-1.1-1.1H12.5l-2.1,0H1.5c-0.6,0-1.1,0.5-1.1,1.1v3.2v8.2l2.1,3.4c1.6,1.5,4.1,2.8,7.4,2.8c0,0,0.1,0,0.2,0
				c1.1,0,6.6-0.2,9.8-4.9c1.4,2,4.3,4.9,9.3,4.9c0.5,0,6.5,0.1,9.9-4.9c1.4,2,4.3,4.9,9.3,4.9c0.4,0,4.7,0,8.1-3L58.9,36.3z"/>
			<path class="st9" d="M29.5,42.6c-0.1,0-0.2,0-0.2,0c-5,0-8-3-9.3-4.8c-3.2,4.6-8.7,4.8-9.8,4.8c-0.1,0-0.1,0-0.2,0
				c-2.9,0-5.4-1-7.5-2.9l0,0l-2.2-3.4V25c0-0.7,0.5-1.2,1.2-1.2l32.9,0c0.7,0,1.2,0.5,1.2,1.2c0,0.7-0.5,1.2-1.2,1.2H2.7v10.3
				c1.3,1.7,3.6,3.8,7.3,3.8c0,0,0,0,0,0c0.3,0,6.3,0.1,8.8-5.3c0.2-0.4,0.6-0.7,1.1-0.7c0.5,0,0.9,0.3,1.1,0.8
				c0.2,0.5,2.6,5.2,8.3,5.2c0,0,0,0,0,0c0.3,0,6.3,0.1,8.8-5.3c0.2-0.4,0.6-0.7,1.1-0.7h0c0.5,0,0.9,0.3,1.1,0.7
				c0.1,0.2,2.4,5.3,8.3,5.3l0,0c0.5,0,5.3-0.1,8-4l0-10.1H43.5c-0.7,0-1.2-0.5-1.2-1.2s0.5-1.2,1.2-1.2l14.3,0
				c0.3,0,0.6,0.1,0.8,0.3c0.2,0.2,0.3,0.5,0.3,0.8v11.3l-2.2,3.3c-3.5,3.1-8,3-8.2,3c-5,0-8-3-9.3-4.8C36,42.4,30.7,42.6,29.5,42.6
				z M2.7,39.6c2.1,1.8,4.5,2.8,7.4,2.8c0,0,0.1,0,0.2,0c1.1,0,6.5-0.2,9.7-4.9l0.1-0.1l0.1,0.1c1.3,1.8,4.2,4.9,9.2,4.9
				c0.3,0,6.4,0.1,9.8-4.9l0.1-0.1l0.1,0.1c1.3,1.8,4.2,4.9,9.3,4.9c0.2,0,4.6,0.1,8.1-3l2.1-3.2V25c0-0.3-0.1-0.5-0.3-0.7
				C58.3,24.1,58,24,57.8,24l-14.3,0c-0.5,0-1,0.4-1,1s0.4,1,1,1h13.4l0,10.4l0,0c-2.7,4-7.6,4.1-8.2,4.1l0,0l0,0
				c-6,0-8.4-5.2-8.5-5.4c-0.2-0.3-0.5-0.6-0.9-0.6c-0.4,0-0.7,0.2-0.9,0.6c-1,2.3-2.9,4-5.4,4.8c-1.9,0.6-3.5,0.6-3.6,0.6
				c0,0,0,0,0,0c-5.8,0-8.2-4.8-8.5-5.4c-0.1-0.4-0.5-0.6-0.9-0.6c-0.4,0-0.7,0.2-0.9,0.6c-2.6,5.5-8.7,5.4-9,5.4c0,0,0,0,0,0
				c-3.9,0-6.3-2.1-7.6-3.9l0,0V26h31.9c0.5,0,1-0.4,1-1s-0.4-1-1-1L1.5,24c-0.5,0-1,0.4-1,1v11.3L2.7,39.6z"/>
		</g>
	</g>
</g>
<g id="Layer_5" class="st0">
	<path class="st10" d="M13,42.8l0.1,3.4l3.3,0.9l-3.2,1.2l0.1,3.4l-2.1-2.7L8,50.3l1.9-2.8l-2.1-2.7l3.3,0.9L13,42.8 M13,41.4
		c-0.5,0-0.9,0.2-1.2,0.6l-1.3,2l-2.3-0.6c-0.1,0-0.3-0.1-0.4-0.1c-0.5,0-0.9,0.2-1.2,0.6c-0.3,0.5-0.3,1.2,0.1,1.7l1.5,1.9l-1.3,2
		c-0.3,0.5-0.3,1.2,0.1,1.7c0.3,0.4,0.7,0.5,1.1,0.5c0.2,0,0.3,0,0.5-0.1l2.2-0.8l1.5,1.9c0.3,0.4,0.7,0.5,1.1,0.5
		c0.2,0,0.3,0,0.5-0.1c0.6-0.2,1-0.8,0.9-1.4l-0.1-2.4l2.2-0.8c0.6-0.2,1-0.8,0.9-1.4c0-0.6-0.5-1.2-1.1-1.3l-2.3-0.6l-0.1-2.4
		c0-0.6-0.5-1.2-1.1-1.3C13.3,41.4,13.1,41.4,13,41.4L13,41.4z"/>
	<path class="st10" d="M54.4,2.2l-0.2,1.8l1.7,0.8L54,5.2L53.8,7l-0.9-1.6l-1.8,0.4l1.2-1.4l-0.9-1.6l1.7,0.8L54.4,2.2 M54.4,1
		c-0.3,0-0.7,0.1-0.9,0.4l-0.7,0.7l-0.9-0.4c-0.2-0.1-0.3-0.1-0.5-0.1c-0.3,0-0.7,0.1-0.9,0.4c-0.4,0.4-0.4,1-0.2,1.4l0.5,0.8
		L50.2,5c-0.4,0.4-0.4,1-0.2,1.4c0.2,0.4,0.6,0.6,1,0.6c0.1,0,0.2,0,0.2,0l1-0.2l0.5,0.8c0.2,0.4,0.6,0.6,1,0.6c0.1,0,0.2,0,0.2,0
		c0.5-0.1,0.9-0.5,1-1l0.1-1l1-0.2c0.5-0.1,0.9-0.5,1-1c0.1-0.5-0.2-1-0.7-1.2l-0.9-0.4l0.1-1c0.1-0.5-0.2-1-0.7-1.2
		C54.7,1.1,54.5,1,54.4,1L54.4,1z M54.4,3.4L54.4,3.4L54.4,3.4L54.4,3.4z"/>
	<g class="st1">
		<path class="st2" d="M19.6,20.3c-0.6,0-1.1-0.5-1.1-1.1c0-7.2,5.8-13,13-13c0.6,0,1.1,0.5,1.1,1.1c0,0.6-0.5,1.1-1.1,1.1
			c-5.9,0-10.8,4.8-10.8,10.8C20.7,19.8,20.2,20.3,19.6,20.3z"/>
		<path class="st2" d="M24.1,30.7c-0.3,0-0.7-0.2-0.9-0.4c-1.9-2.4-3.2-4.7-4-6.9c-0.2-0.6,0.1-1.2,0.7-1.4c0.3-0.1,0.6-0.1,0.9,0
			c0.3,0.1,0.5,0.4,0.6,0.6l0,0c0.7,2,1.9,4.1,3.6,6.3c0.2,0.2,0.3,0.5,0.2,0.8c0,0.3-0.2,0.6-0.4,0.7
			C24.6,30.6,24.3,30.7,24.1,30.7z"/>
		<path class="st2" d="M31.2,2.3c-9.3,0-16.8,7.5-16.8,16.8c0,4.1,1.9,8.8,5.6,13.5c2.7,3.4,6.3,6.8,9.9,9.4l-1.7,2.8
			c-0.2,0.3-0.2,0.7,0,1c0.2,0.3,0.5,0.5,0.9,0.5h1.2V58c0,0.5,0.4,1,1,1c0.5,0,1-0.4,1-1V46.3h1.2c0.5,0,0.9-0.4,1-0.8
			c0.1-0.2,0-0.5-0.1-0.7l-1.5-3c3.6-2.5,7-5.8,9.6-9.2C46.1,28,48,23.3,48,19.2C48,9.9,40.5,2.3,31.2,2.3z M30.7,44.4l0.7-1.1
			l0.5,1.1H30.7z M40.9,31.4c-2.6,3.4-6.1,6.7-9.7,9.1c-3.6-2.5-7.1-5.8-9.7-9.1c-3.4-4.3-5.1-8.5-5.1-12.2C16.4,11,23,4.3,31.2,4.3
			c8.2,0,14.9,6.7,14.9,14.9C46.1,22.9,44.3,27.1,40.9,31.4z"/>
	</g>
	<path class="st11" d="M53.2,42.8c0.9,0,1.6,0.7,1.6,1.6c0,0.9-0.7,1.6-1.6,1.6s-1.6-0.7-1.6-1.6C51.6,43.5,52.3,42.8,53.2,42.8
		 M53.2,41.4c-1.7,0-3,1.4-3,3c0,1.7,1.4,3,3,3c1.7,0,3-1.4,3-3C56.2,42.8,54.8,41.4,53.2,41.4L53.2,41.4z"/>
	<path class="st12" d="M6.5,5.5c0.7,0,1.3,0.6,1.3,1.3S7.2,8.1,6.5,8.1S5.2,7.5,5.2,6.8S5.8,5.5,6.5,5.5 M6.5,4C5,4,3.7,5.3,3.7,6.8
		S5,9.6,6.5,9.6s2.8-1.2,2.8-2.8S8,4,6.5,4L6.5,4z"/>
</g>
<g id="Layer_6" class="st0">
	<path class="st7" d="M11.8,14.7c-3.7,1.3-6.1,4.9-6.1,8.8c0,0.5,0.4,0.9,0.9,0.9s0.9-0.4,0.9-0.9c0-3.2,2-6,5-7.1
		c0.5-0.2,0.7-0.7,0.5-1.1C12.8,14.7,12.3,14.5,11.8,14.7z"/>
	<path class="st7" d="M47.3,14.7c3.7,1.3,6.1,4.9,6.1,8.8c0,0.5-0.4,0.9-0.9,0.9c-0.5,0-0.9-0.4-0.9-0.9c0-3.2-2-6-5-7.1
		c-0.5-0.2-0.7-0.7-0.5-1.1C46.4,14.7,46.9,14.5,47.3,14.7z"/>
	<path class="st13" d="M19,18.5c-0.5,0-1-0.4-1-1C18,11.2,23.2,6,29.6,6c0.5,0,1,0.4,1,1c0,0.5-0.4,1-1,1c-5.3,0-9.6,4.3-9.6,9.6
		C20,18.1,19.5,18.5,19,18.5z"/>
	<path class="st13" d="M23,27.8c-0.3,0-0.6-0.1-0.8-0.4c-1.6-2.1-2.8-4.2-3.5-6.1c-0.2-0.5,0.1-1.1,0.6-1.3c0.3-0.1,0.5-0.1,0.8,0
		c0.2,0.1,0.4,0.3,0.5,0.6l0,0c0.6,1.8,1.7,3.6,3.2,5.6c0.2,0.2,0.2,0.5,0.2,0.7c0,0.3-0.2,0.5-0.4,0.7C23.4,27.8,23.2,27.8,23,27.8
		z"/>
	<path class="st7" d="M21.7,34.6c-0.4-0.3-0.9-0.3-1.2,0c-1.7,1.8-3.6,3.5-5.5,4.8c-2.7-1.9-5.3-4.3-7.2-6.8
		c-2.5-3.2-3.9-6.4-3.9-9.2c0-5.4,3.9-10,9.2-10.9c0.5-0.1,0.8-0.5,0.7-1c-0.1-0.5-0.5-0.8-1-0.7c-3,0.5-5.7,2-7.6,4.3
		c-2,2.3-3.1,5.3-3.1,8.3c0,3.2,1.5,6.7,4.2,10.3c2,2.6,4.7,5.1,7.4,7.1l-1.2,2c-0.2,0.3-0.2,0.6,0,0.9c0.2,0.3,0.4,0.4,0.8,0.4h0.8
		v12.4c0,0.5,0.4,0.9,0.9,0.9c0.5,0,0.9-0.4,0.9-0.9V44.1h0.8c0.5,0,0.9-0.4,0.9-0.9c0-0.1,0-0.3-0.1-0.4c0,0,0-0.1,0-0.1l-1.2-2
		c1.9-1.4,3.9-3.1,5.6-4.9C22.1,35.5,22.1,34.9,21.7,34.6z M14.9,42.3l0.4-0.6l0.4,0.6H14.9z"/>
	<path class="st7" d="M53.9,15.1c-2-2.3-4.7-3.8-7.6-4.3c-0.5-0.1-0.9,0.2-1,0.7c-0.1,0.5,0.2,0.9,0.7,1c5.4,0.9,9.2,5.5,9.2,10.9
		c0,2.8-1.3,5.9-3.9,9.2c-2,2.5-4.6,5-7.2,6.8c-1.9-1.3-3.9-3-5.5-4.8c-0.3-0.4-0.9-0.4-1.2,0c-0.4,0.3-0.4,0.9,0,1.2
		c1.7,1.8,3.7,3.5,5.6,4.9l-1.2,2c-0.2,0.3-0.2,0.6,0,0.9c0.2,0.3,0.4,0.4,0.8,0.4h0.8l0,12.4c0,0.5,0.4,0.9,0.9,0.9
		c0.5,0,0.9-0.4,0.9-0.9l0-12.4h0.8c0.5,0,0.9-0.4,0.9-0.9c0-0.2,0-0.3-0.1-0.4c0,0,0,0,0-0.1l-1.2-2c2.7-1.9,5.4-4.5,7.4-7
		c2.8-3.5,4.2-7.1,4.2-10.3C57,20.4,55.9,17.4,53.9,15.1z M44,42.3l0.4-0.6l0.4,0.6H44z"/>
	<path class="st13" d="M29.3,2.6c-8.3,0-15,6.7-15,15c0,3.7,1.7,7.8,4.9,12c2.4,3.1,5.6,6.1,8.8,8.4l-1.5,2.5
		c-0.2,0.3-0.2,0.6,0,0.9c0.2,0.3,0.4,0.4,0.8,0.4h1.1v14.8c0,0.5,0.4,0.9,0.9,0.9c0.5,0,0.9-0.4,0.9-0.9V41.7h1.1
		c0.4,0,0.8-0.3,0.9-0.7c0.1-0.2,0-0.4-0.1-0.6l-1.3-2.7c3.2-2.3,6.3-5.2,8.6-8.2c3.2-4.1,4.9-8.3,4.9-12
		C44.3,9.3,37.6,2.6,29.3,2.6z M28.9,40l0.6-1l0.5,1H28.9z M38,28.5c-2.3,3-5.5,5.9-8.6,8.1c-3.2-2.2-6.3-5.1-8.6-8.1
		c-3-3.8-4.6-7.6-4.6-10.9c0-7.3,5.9-13.2,13.2-13.2c7.3,0,13.2,5.9,13.2,13.2C42.6,20.8,41,24.6,38,28.5z"/>
</g>
<g id="Layer_7">
	<g>
		<g>
			<path class="st2" d="M17.5,25.5c-7.9,1.4-14,8.4-14,16.7c0,9.4,7.6,17,17,17c3.5,0,6.9-1.1,9.8-3.1c2.8,1.9,6.1,3.1,9.8,3.1
				c9.4,0,17-7.6,17-17c0-9.4-7.6-17-17-17c-3.5,0-6.9,1.1-9.8,3.1c-2-1.4-4.2-2.4-6.7-2.8L17.5,25.5z M5.6,42.2
				c0-8.2,6.7-14.9,14.9-14.9S35.4,34,35.4,42.2c0,2.7-0.7,5.3-2.1,7.6c-0.7-0.6-1.4-1.4-1.9-2.2c0.8-1.7,1.3-3.5,1.3-5.4
				c0-6.7-5.5-12.2-12.2-12.2S8.3,35.4,8.3,42.2s5.5,12.2,12.2,12.2c2.2,0,4.3-0.6,6.2-1.7c0.6,0.7,1.2,1.4,1.9,2
				c-2.4,1.6-5.2,2.4-8.1,2.4C12.3,57.1,5.6,50.4,5.6,42.2z M20.5,52.3c-5.6,0-10.1-4.5-10.1-10.1c0-5.6,4.5-10.1,10.1-10.1
				c1.8,0,3.5,0.5,5,1.3C23.9,36,23,39,23,42.2c0,3.2,0.9,6.2,2.5,8.8C24,51.9,22.3,52.3,20.5,52.3z M30.3,39.5
				c0.2,0.9,0.4,1.8,0.4,2.7c0,0.9-0.1,1.8-0.4,2.7c-0.2-0.9-0.4-1.8-0.4-2.7C29.9,41.3,30,40.3,30.3,39.5z M35,33.4
				c1.5-0.9,3.2-1.3,5-1.3c5.6,0,10.1,4.5,10.1,10.1c0,5.6-4.5,10.1-10.1,10.1c-1.8,0-3.5-0.5-5-1.3c1.6-2.7,2.5-5.7,2.5-8.8
				C37.5,39,36.6,35.9,35,33.4z M40,57.1c-8.2,0-14.9-6.7-14.9-14.9c0-2.7,0.7-5.3,2.1-7.6c0.7,0.6,1.4,1.4,1.9,2.2
				c-0.8,1.7-1.3,3.5-1.3,5.4c0,6.7,5.5,12.2,12.2,12.2s12.2-5.5,12.2-12.2S46.7,30,40,30c-2.2,0-4.3,0.6-6.2,1.7
				c-0.6-0.7-1.2-1.4-1.9-2c2.4-1.6,5.2-2.4,8.1-2.4c8.2,0,14.9,6.7,14.9,14.9C54.9,50.4,48.2,57.1,40,57.1z"/>
		</g>
	</g>
	<g>
		<path class="st14" d="M21.2,7.5c0.6,0,1-0.5,1-1V1.7c0-0.6-0.5-1-1-1c-0.6,0-1,0.5-1,1v4.8C20.1,7,20.6,7.5,21.2,7.5z"/>
		<path class="st14" d="M9.6,11.8c0.2,0.2,0.5,0.3,0.7,0.3c0.3,0,0.5-0.1,0.7-0.3c0.4-0.4,0.4-1.1,0-1.5L7.7,7
			C7.3,6.6,6.7,6.6,6.3,7c-0.4,0.4-0.4,1.1,0,1.5L9.6,11.8z"/>
		<path class="st14" d="M32,12.1c0.3,0,0.5-0.1,0.7-0.3l3.4-3.4c0.4-0.4,0.4-1.1,0-1.5c-0.4-0.4-1.1-0.4-1.5,0l-3.4,3.4
			c-0.4,0.4-0.4,1.1,0,1.5C31.5,12,31.8,12.1,32,12.1z"/>
	</g>
	<g>
		<g>
			<path class="st15" d="M23.7,25.5l6.6-4.3c0.4-0.3,0.6-0.8,0.4-1.2l-2-5.3c-0.2-0.4-0.5-0.7-1-0.7H13.5c-0.4,0-0.8,0.3-1,0.7
				l-2,5.3c-0.2,0.5,0,1,0.4,1.2l6.6,4.3L23.7,25.5z M25.9,19.2H15.4l5.3-3.1L25.9,19.2z M27.1,16l0.7,1.9L24.5,16H27.1z M14.3,16
				h2.6l-3.3,1.9L14.3,16z M15.1,21.3h11.2L20.7,25L15.1,21.3z"/>
		</g>
	</g>
</g>
</svg>
